<mxfile host="app.diagrams.net" modified="2024-02-18T21:49:06.757Z" agent="Mozilla/5.0 (Windows NT 10.0; Win64; x64) AppleWebKit/537.36 (KHTML, like Gecko) Chrome/121.0.0.0 Safari/537.36" version="23.1.5" etag="CX_TPAdPDb-U9iCBzdZ3" type="github">
  <diagram name="Seite-1" id="lfl4i450WfD22Rne9Rqw">
    <mxGraphModel>
      <root>
        <mxCell id="0" />
        <mxCell id="1" parent="0" />
      </root>
    </mxGraphModel>
  </diagram>
</mxfile>
